<svg xmlns="http://www.w3.org/2000/svg" xmlns:xlink="http://www.w3.org/1999/xlink" id="Capa_1" x="0" y="0" enable-background="new 0 0 455.731 455.731" version="1.1" viewBox="0 0 455.731 455.731" xml:space="preserve"><g><rect width="455.731" height="455.731" x="0" y="0" fill="#F89029"/><path fill="#FFF" d="M349.922,190.236h-14.072c-11.015,0-19.944-8.929-19.944-19.944v-1.389 c0-46.252-37.495-83.747-83.747-83.747h-62.547c-46.252,0-83.747,37.495-83.747,83.747v117.927 c0,46.252,37.495,83.747,83.747,83.747h116.507c46.252,0,83.747-37.495,83.747-83.747v-76.649 C369.866,199.165,360.936,190.236,349.922,190.236z M173.196,157.576h66.74c9.019,0,16.33,7.311,16.33,16.33 s-7.311,16.33-16.33,16.33h-66.74c-9.019,0-16.33-7.311-16.33-16.33S164.177,157.576,173.196,157.576z M283.956,298.156h-110.76 c-9.019,0-16.33-7.311-16.33-16.33c0-9.019,7.311-16.33,16.33-16.33h110.76c9.019,0,16.33,7.311,16.33,16.33 C300.286,290.844,292.974,298.156,283.956,298.156z"/></g></svg>